<svg xmlns="http://www.w3.org/2000/svg" width="226.77" height="227.09" viewBox="0 0 226.77 227.09">
  <title>it-strategy-and-consulting</title>
  <g id="Layer_2" data-name="Layer 2">
    <g id="Layer_1-2" data-name="Layer 1">
      <rect width="226.77" height="226.77" fill="#fff"/>
      <g>
        <rect x="28.84" y="190.34" width="169.09" height="11.67" fill="#e7e3f4"/>
        <rect x="97.17" y="206.32" width="32.42" height="13.59" fill="#e7e3f4"/>
        <rect x="70.7" y="223.34" width="85.37" height="3.37" fill="#e7e3f4"/>
        <rect x="97.17" y="202.02" width="32.42" height="5.84" fill="#b6aadd"/>
        <path d="M70.59,54.37h90a0,0,0,0,1,0,0V223.46a0,0,0,0,1,0,0h-90A4.43,4.43,0,0,1,66.16,219V58.8A4.43,4.43,0,0,1,70.59,54.37Z" transform="translate(252.3 25.53) rotate(90)" fill="#08308c" stroke="#08308c" stroke-miterlimit="10" stroke-width="0.64"/>
        <rect x="105.45" y="109.54" width="15.87" height="169.09" transform="translate(307.46 80.69) rotate(90)" fill="none" stroke="#08308c" stroke-miterlimit="10" stroke-width="0.64"/>
        <rect x="104.44" y="194.75" width="17.9" height="32.42" transform="translate(324.35 97.58) rotate(90)" fill="none" stroke="#08308c" stroke-miterlimit="10" stroke-width="0.64"/>
        <rect x="109.96" y="180.66" width="6.86" height="85.37" transform="translate(336.73 109.96) rotate(90)" fill="none" stroke="#08308c" stroke-miterlimit="10" stroke-width="0.64"/>
        <rect x="34.14" y="96.99" width="158.48" height="89.15" fill="#fff" stroke="#08308c" stroke-miterlimit="10" stroke-width="0.64"/>
        <path d="M113.38,31.9h3.55a0,0,0,0,1,0,0V179.78a0,0,0,0,1,0,0h-3.55a3.53,3.53,0,0,1-3.53-3.53V35.43A3.53,3.53,0,0,1,113.38,31.9Z" transform="translate(219.22 -7.55) rotate(90)" fill="#cb30ff" stroke="#08308c" stroke-miterlimit="10" stroke-width="0.64"/>
        <rect x="77.66" y="71.17" width="71.46" height="147.88" transform="translate(258.5 31.73) rotate(90)" fill="#fff" stroke="#08308c" stroke-miterlimit="10" stroke-width="0.64"/>
        <circle cx="44.5" cy="106.03" r="1.61" fill="#08308c"/>
        <circle cx="48.9" cy="106.03" r="1.61" fill="#08308c"/>
        <circle cx="53.31" cy="106.03" r="1.61" fill="#08308c"/>
        <circle cx="50.52" cy="168.88" r="4.41" fill="none" stroke="#08308c" stroke-miterlimit="10" stroke-width="0.64"/>
        <circle cx="176.08" cy="119.27" r="4.41" fill="none" stroke="#08308c" stroke-miterlimit="10" stroke-width="0.64"/>
        <g>
          <path d="M117.19,152.62c26,8.48,49.22-5.78,56.1-22.41" fill="none" stroke="#08308c" stroke-linecap="round" stroke-miterlimit="10" stroke-width="0.64"/>
          <polygon points="175.07 131.53 174.32 127.29 171.02 130.06 175.07 131.53" fill="#08308c"/>
        </g>
        <g>
          <path d="M50.52,160.34c.12-.42.24-.83.37-1.23" fill="none" stroke="#08308c" stroke-linecap="round" stroke-miterlimit="10" stroke-width="0.64"/>
          <path d="M51.76,156.67c10.69-26.77,43.42-11.67,63-4.87" fill="none" stroke="#08308c" stroke-linecap="round" stroke-miterlimit="10" stroke-width="0.64" stroke-dasharray="2.59 2.59"/>
          <path d="M116,152.21l1.22.41" fill="none" stroke="#08308c" stroke-linecap="round" stroke-miterlimit="10" stroke-width="0.64"/>
        </g>
        <g>
          <line x1="63.48" y1="119.27" x2="70.7" y2="126.5" fill="none" stroke="#526eaf" stroke-linecap="round" stroke-miterlimit="10" stroke-width="0.64"/>
          <line x1="70.7" y1="119.27" x2="63.48" y2="126.5" fill="none" stroke="#526eaf" stroke-linecap="round" stroke-miterlimit="10" stroke-width="0.64"/>
        </g>
        <g>
          <line x1="116.17" y1="130.01" x2="123.39" y2="137.24" fill="none" stroke="#526eaf" stroke-linecap="round" stroke-miterlimit="10" stroke-width="0.64"/>
          <line x1="123.39" y1="130.01" x2="116.17" y2="137.24" fill="none" stroke="#526eaf" stroke-linecap="round" stroke-miterlimit="10" stroke-width="0.64"/>
        </g>
        <g>
          <line x1="144.08" y1="118.42" x2="151.3" y2="125.64" fill="none" stroke="#526eaf" stroke-linecap="round" stroke-miterlimit="10" stroke-width="0.64"/>
          <line x1="151.3" y1="118.42" x2="144.08" y2="125.64" fill="none" stroke="#526eaf" stroke-linecap="round" stroke-miterlimit="10" stroke-width="0.64"/>
        </g>
        <g>
          <line x1="79.91" y1="157.59" x2="87.13" y2="164.81" fill="none" stroke="#526eaf" stroke-linecap="round" stroke-miterlimit="10" stroke-width="0.64"/>
          <line x1="87.13" y1="157.59" x2="79.91" y2="164.81" fill="none" stroke="#526eaf" stroke-linecap="round" stroke-miterlimit="10" stroke-width="0.64"/>
        </g>
        <g>
          <line x1="160.98" y1="156.73" x2="168.2" y2="163.95" fill="none" stroke="#526eaf" stroke-linecap="round" stroke-miterlimit="10" stroke-width="0.64"/>
          <line x1="168.2" y1="156.73" x2="160.98" y2="163.95" fill="none" stroke="#526eaf" stroke-linecap="round" stroke-miterlimit="10" stroke-width="0.64"/>
        </g>
        <g>
          <line x1="122.37" y1="166.07" x2="129.6" y2="173.29" fill="none" stroke="#526eaf" stroke-linecap="round" stroke-miterlimit="10" stroke-width="0.64"/>
          <line x1="129.6" y1="166.07" x2="122.37" y2="173.29" fill="none" stroke="#526eaf" stroke-linecap="round" stroke-miterlimit="10" stroke-width="0.64"/>
        </g>
      </g>
    </g>
  </g>
</svg>
