<svg xmlns="http://www.w3.org/2000/svg" width="226.77" height="227.05" viewBox="0 0 226.77 227.05">
  <title>maintenance-and-support</title>
  <g id="Layer_2" data-name="Layer 2">
    <g id="Layer_1-2" data-name="Layer 1">
      <g>
        <rect width="226.77" height="226.77" fill="#fff"/>
        <g>
          <g>
            <path d="M116.49,152.5H191.6a17.85,17.85,0,0,1,10.55,32.27,27,27,0,0,0,7.33,10.85c-10.28-.08-17-3.12-21.47-7.35H116.49a17.89,17.89,0,0,1,0-35.77Z" fill="#e7e3f4" stroke="#08308c" stroke-miterlimit="10" stroke-width="0.57"/>
            <g>
              <circle cx="173.16" cy="170.38" r="5.33" fill="#fff" stroke="#08308c" stroke-miterlimit="10" stroke-width="0.57"/>
              <circle cx="154.05" cy="170.38" r="5.33" fill="#fff" stroke="#08308c" stroke-miterlimit="10" stroke-width="0.57"/>
              <circle cx="134.93" cy="170.38" r="5.33" fill="#fff" stroke="#08308c" stroke-miterlimit="10" stroke-width="0.57"/>
            </g>
          </g>
          <g opacity="0.2">
            <path d="M179.91,152.5H116.47a18,18,0,0,0-17.25,13.26h63.44A17.93,17.93,0,0,0,179.91,152.5Z" fill="#08308c"/>
          </g>
          <g>
            <path d="M160.27,126.29H85.16a17.86,17.86,0,0,0-10.55,32.28,27,27,0,0,1-7.33,10.85c10.28-.08,17-3.13,21.47-7.36h71.52a17.89,17.89,0,1,0,0-35.77Z" fill="#6b83ba" stroke="#08308c" stroke-miterlimit="10" stroke-width="0.57"/>
            <g>
              <circle cx="103.61" cy="144.18" r="5.33" fill="#fff" stroke="#08308c" stroke-miterlimit="10" stroke-width="0.57"/>
              <circle cx="122.72" cy="144.18" r="5.33" fill="#fff" stroke="#08308c" stroke-miterlimit="10" stroke-width="0.57"/>
              <circle cx="141.83" cy="144.18" r="5.33" fill="#fff" stroke="#08308c" stroke-miterlimit="10" stroke-width="0.57"/>
            </g>
          </g>
          <g>
            <g>
              <path d="M46.3,214.6,22.89,163.87a17.78,17.78,0,0,1,8.7-23.6l-4,1.83a17.78,17.78,0,0,0-8.7,23.6l23.41,50.73A17.79,17.79,0,0,0,66,225.13l4-1.83A17.79,17.79,0,0,1,46.3,214.6Z" fill="#bf00ff"/>
              <path d="M52,195,41.54,172.25a4.24,4.24,0,0,1,2.07-5.62l4-1.83,4.56-2.1a7.39,7.39,0,0,0,3.61-9.8l-6-12.9A7.38,7.38,0,0,0,40,136.39l-8.4,3.88a17.78,17.78,0,0,0-8.7,23.6L46.3,214.6a17.79,17.79,0,0,0,23.61,8.7l8.4-3.87a7.4,7.4,0,0,0,3.61-9.8l-6-12.9a7.38,7.38,0,0,0-9.79-3.61l-4.56,2.1-4,1.83A4.24,4.24,0,0,1,52,195Z" fill="#cb30ff"/>
            </g>
            <path d="M55.74,152.9l-6-12.9A7.38,7.38,0,0,0,40,136.39L27.63,142.1h0a17.78,17.78,0,0,0-8.7,23.6l23.41,50.73A17.79,17.79,0,0,0,66,225.13h0l12.36-5.7a7.4,7.4,0,0,0,3.61-9.8l-6-12.9a7.38,7.38,0,0,0-9.79-3.61l-8.52,3.93A4.24,4.24,0,0,1,52,195L41.54,172.25a4.24,4.24,0,0,1,2.07-5.62l8.52-3.93A7.39,7.39,0,0,0,55.74,152.9Z" fill="none" stroke="#08308c" stroke-miterlimit="10" stroke-width="0.57"/>
          </g>
        </g>
      </g>
    </g>
  </g>
</svg>
